<svg width="25" height="25" viewBox="0 0 25 25" fill="none" xmlns="http://www.w3.org/2000/svg">
<circle cx="12.0978" cy="8.31168" r="2.99351" stroke="#E58A08" stroke-width="2" stroke-linecap="round"/>
<path d="M15.1453 8.18751C15.443 7.67184 15.9334 7.29556 16.5085 7.14144C17.0837 6.98733 17.6965 7.06801 18.2122 7.36573C18.7278 7.66345 19.1041 8.15383 19.2582 8.72899C19.4124 9.30414 19.3317 9.91697 19.034 10.4326C18.7362 10.9483 18.2459 11.3246 17.6707 11.4787C17.0955 11.6328 16.4827 11.5521 15.967 11.2544C15.4514 10.9567 15.0751 10.4663 14.921 9.89115C14.7669 9.316 14.8476 8.70318 15.1453 8.18751L15.1453 8.18751Z" stroke="#E58A08" stroke-width="1.5"/>
<path d="M5.16139 8.18751C5.45911 7.67184 5.94949 7.29556 6.52464 7.14144C7.0998 6.98733 7.71262 7.06801 8.22829 7.36573C8.74396 7.66345 9.12024 8.15383 9.27435 8.72899C9.42847 9.30414 9.34779 9.91697 9.05007 10.4326C8.75234 10.9483 8.26196 11.3246 7.68681 11.4787C7.11165 11.6328 6.49883 11.5521 5.98316 11.2544C5.46749 10.9567 5.09121 10.4663 4.9371 9.89115C4.78298 9.316 4.86366 8.70318 5.16139 8.18751L5.16139 8.18751Z" stroke="#E58A08" stroke-width="1.5"/>
<path d="M16.9714 18.2954L15.9911 18.4929L16.1527 19.2954H16.9714V18.2954ZM20.8032 17.1997L21.7455 16.8651V16.8651L20.8032 17.1997ZM14.874 15.0113L14.2692 14.215L13.1126 15.0935L14.3459 15.8605L14.874 15.0113ZM19.9503 17.2954H16.9714V19.2954H19.9503V17.2954ZM19.8608 17.5342C19.8537 17.5144 19.8472 17.4767 19.8555 17.431C19.8634 17.3877 19.8813 17.3548 19.8982 17.3338C19.9305 17.2936 19.9571 17.2954 19.9503 17.2954V19.2954C21.0961 19.2954 22.2247 18.215 21.7455 16.8651L19.8608 17.5342ZM17.0896 15.3019C18.7267 15.3019 19.4862 16.4791 19.8608 17.5342L21.7455 16.8651C21.2807 15.5558 20.033 13.3019 17.0896 13.3019V15.3019ZM15.4789 15.8077C15.8624 15.5163 16.3731 15.3019 17.0896 15.3019V13.3019C15.9292 13.3019 14.9951 13.6636 14.2692 14.215L15.4789 15.8077ZM14.3459 15.8605C15.3828 16.5054 15.8172 17.6294 15.9911 18.4929L17.9517 18.098C17.7341 17.0174 17.1284 15.2358 15.4022 14.1622L14.3459 15.8605Z" fill="white"/>
<path d="M9.32137 15.0113L9.84949 15.8605L11.0828 15.0934L9.92622 14.215L9.32137 15.0113ZM3.39223 17.1997L4.33461 17.5342L3.39223 17.1997ZM7.22395 18.2954V19.2954H8.04263L8.20427 18.4929L7.22395 18.2954ZM7.10581 15.3019C7.8223 15.3019 8.33295 15.5163 8.71652 15.8076L9.92622 14.215C9.20032 13.6636 8.26616 13.3019 7.10581 13.3019V15.3019ZM4.33461 17.5342C4.70921 16.4791 5.46869 15.3019 7.10581 15.3019V13.3019C4.16246 13.3019 2.9147 15.5558 2.44986 16.8651L4.33461 17.5342ZM4.24507 17.2954C4.23825 17.2954 4.2649 17.2936 4.29717 17.3338C4.31409 17.3548 4.33197 17.3877 4.33985 17.431C4.34817 17.4767 4.34166 17.5144 4.33461 17.5342L2.44986 16.8651C1.97064 18.215 3.09927 19.2954 4.24507 19.2954V17.2954ZM7.22395 17.2954H4.24507V19.2954H7.22395V17.2954ZM8.20427 18.4929C8.37817 17.6294 8.81258 16.5054 9.84949 15.8605L8.79325 14.1621C7.06701 15.2357 6.46128 17.0174 6.24364 18.098L8.20427 18.4929Z" fill="white"/>
<path d="M12.0976 14.3019C15.6621 14.3019 16.6813 16.8472 16.9728 18.3028C17.0812 18.8443 16.6418 19.2938 16.0895 19.2938H8.10571C7.55343 19.2938 7.114 18.8443 7.22243 18.3028C7.51388 16.8472 8.53312 14.3019 12.0976 14.3019Z" stroke="white" stroke-width="2" stroke-linecap="round"/>
</svg>
