<svg width="25" height="25" viewBox="0 0 25 25" fill="none" xmlns="http://www.w3.org/2000/svg">
<path d="M14.8995 15.3003L10.906 19.2938L14.8995 23.2873" stroke="white" stroke-width="2"/>
<path d="M18.9551 8.81088C19.5684 9.87328 19.8914 11.0784 19.8914 12.3052C19.8914 13.532 19.5684 14.7371 18.9551 15.7995C18.3417 16.8619 17.4594 17.7442 16.397 18.3575C15.3346 18.9709 14.1295 19.2938 12.9027 19.2938" stroke="white" stroke-width="2" stroke-linecap="round"/>
<path d="M10.9059 9.31007L14.8994 5.31657L10.9059 1.32306" stroke="#E58A08" stroke-width="2"/>
<path d="M6.85036 15.7995C6.23698 14.7371 5.91406 13.532 5.91406 12.3052C5.91406 11.0784 6.23698 9.87329 6.85036 8.81088C7.46374 7.74848 8.34597 6.86625 9.40838 6.25287C10.4708 5.63948 11.6759 5.31657 12.9027 5.31657" stroke="#E58A08" stroke-width="2" stroke-linecap="round"/>
</svg>
