<svg width="31" height="32" viewBox="0 0 31 32" fill="none" xmlns="http://www.w3.org/2000/svg">
<g filter="url(#filter0_d_188_876)">
<path d="M18.6635 5.51679L18.7994 6.5075L18.6635 5.51679ZM17.7308 5.13048L16.9342 5.7349L17.7308 5.13048ZM21.9188 4.7996L21.2117 5.5067L21.9188 4.7996ZM21.285 4.26388L20.8857 5.18072L21.285 4.26388ZM20.5797 4.2287L20.8857 5.18072L20.5797 4.2287ZM23.3818 7.03074L22.4297 6.72471L23.3818 7.03074ZM22.8109 5.69161L23.518 4.98451L22.8109 5.69161ZM23.3466 6.32547L24.2634 5.92623L23.3466 6.32547ZM22.4799 9.87964L23.0844 9.08298L22.4799 9.87964ZM22.0936 8.94705L21.1029 8.81112L22.0936 8.94705ZM25.2197 10.8474L26.1503 10.4814L25.2197 10.8474ZM24.7459 10.3239L24.2891 11.2134L24.7459 10.3239ZM24.7458 14.2866L24.2891 13.397L24.7458 14.2866ZM25.2197 13.7629L26.1504 14.1288L25.2197 13.7629ZM22.094 15.6635L21.1034 15.7996L22.094 15.6635ZM22.4805 14.7306L23.0847 15.5274L22.4805 14.7306ZM22.811 18.9182L23.5181 19.6253L22.811 18.9182ZM23.3466 18.2846L22.4298 17.8852L23.3466 18.2846ZM23.3818 17.5791L22.4298 17.8852L23.3818 17.5791ZM20.5798 20.3812L20.2737 21.3333L20.5798 20.3812ZM21.9189 19.8103L21.2118 19.1032L21.9189 19.8103ZM21.285 20.3461L20.8858 19.4292L21.285 20.3461ZM17.7309 19.4795L18.5275 20.0839L17.7309 19.4795ZM18.6635 19.0932L18.7994 18.1024L18.6635 19.0932ZM16.7632 22.2195L16.3971 21.289L16.7632 22.2195ZM17.2866 21.7458L16.3971 21.289L17.2866 21.7458ZM13.324 21.7458L14.2135 21.289L13.324 21.7458ZM13.8475 22.2196L13.4815 23.1502L13.8475 22.2196ZM11.9472 19.0935L11.8113 18.1028L11.9472 19.0935ZM12.8797 19.4798L13.6764 18.8754L12.8797 19.4798ZM8.69166 19.8108L9.39877 19.1037L8.69166 19.8108ZM9.32555 20.3465L9.72477 19.4297L9.32555 20.3465ZM10.0308 20.3817L9.72477 19.4297L10.0308 20.3817ZM7.22876 17.5797L6.27673 17.2736L7.22876 17.5797ZM7.79967 18.9188L7.09256 19.6259L7.79967 18.9188ZM7.26393 18.2849L8.18078 17.8857L7.26393 18.2849ZM8.13059 14.7307L7.52617 15.5274L8.13059 14.7307ZM8.51689 15.6633L9.5076 15.7993L8.51689 15.6633ZM5.32153 12.9359H6.32153H5.32153ZM5.39092 13.763L6.32153 13.397L5.39092 13.763ZM5.86475 14.2865L6.32153 13.397L5.86475 14.2865ZM5.86466 10.3239L5.40779 9.43436L5.86466 10.3239ZM5.32153 11.6746H4.32153H5.32153ZM5.39095 10.8473L6.32153 11.2134L5.39095 10.8473ZM8.51728 8.94715L7.52655 9.08295L8.51728 8.94715ZM8.13108 9.87953L7.52655 9.08295L8.13108 9.87953ZM7.79984 5.69104L8.50694 6.39814L7.79984 5.69104ZM7.26392 6.32515L6.34702 5.92605L7.26392 6.32515ZM7.22876 7.03015L6.27669 7.33604L7.22876 7.03015ZM8.69171 4.79917L7.9846 4.09206L8.69171 4.79917ZM12.8799 5.12998L13.6766 5.73427L12.8799 5.12998ZM11.947 5.51637L11.811 6.50707L11.947 5.51637ZM16.7631 2.39081L17.1291 1.4602L16.7631 2.39081ZM17.2866 2.86464L18.1762 2.40786L17.2866 2.86464ZM13.8476 2.39077L13.4817 1.46012L13.8476 2.39077ZM13.3239 2.86473L14.2135 3.32143L13.3239 2.86473ZM14.6744 3.32143H15.936V1.32143H14.6744V3.32143ZM8.50694 6.39814L9.39881 5.50627L7.9846 4.09206L7.09273 4.98393L8.50694 6.39814ZM6.32153 12.9359L6.32153 11.6746H4.32153L4.32153 12.9359H6.32153ZM9.39877 19.1037L8.50678 18.2117L7.09256 19.6259L7.98455 20.5179L9.39877 19.1037ZM15.9359 21.289H14.6746V23.289H15.9359V21.289ZM22.1039 18.2111L21.2118 19.1032L22.626 20.5175L23.5181 19.6253L22.1039 18.2111ZM24.2891 11.6745V12.936H26.2891V11.6745H24.2891ZM21.2117 5.5067L22.1037 6.39872L23.518 4.98451L22.6259 4.09249L21.2117 5.5067ZM19.2625 3.92473C18.9318 4.19529 18.729 4.36025 18.575 4.46736C18.413 4.58001 18.4247 4.54018 18.5275 4.52607L18.7994 6.5075C19.1814 6.45508 19.4915 6.26613 19.717 6.10927C19.9505 5.94688 20.2242 5.72195 20.5289 5.47265L19.2625 3.92473ZM16.4429 3.78016C16.4821 4.1719 16.5166 4.52454 16.5669 4.80446C16.6155 5.07484 16.7011 5.42768 16.9342 5.7349L18.5275 4.52607C18.5903 4.60878 18.5703 4.64515 18.5354 4.45096C18.5023 4.26632 18.4755 4.00629 18.433 3.58115L16.4429 3.78016ZM18.5275 4.52607L16.9342 5.7349C17.3708 6.31037 18.0838 6.6057 18.7994 6.5075L18.5275 4.52607ZM22.6259 4.09249C22.4819 3.94849 22.3399 3.80575 22.2107 3.69267C22.0741 3.57305 21.9038 3.44262 21.6842 3.34703L20.8857 5.18072C20.84 5.16082 20.8333 5.14491 20.8934 5.19756C20.961 5.25674 21.049 5.34401 21.2117 5.5067L22.6259 4.09249ZM20.5289 5.47265C20.707 5.32696 20.8033 5.24887 20.8764 5.19671C20.9415 5.1503 20.9332 5.16546 20.8857 5.18072L20.2737 3.27668C20.0457 3.34995 19.8633 3.46279 19.7154 3.56821C19.5756 3.66788 19.4201 3.79578 19.2625 3.92473L20.5289 5.47265ZM21.6842 3.34703C21.2383 3.15282 20.7368 3.12781 20.2737 3.27668L20.8857 5.18072L21.6842 3.34703ZM23.6857 8.348C23.8147 8.19038 23.9426 8.03486 24.0422 7.89506C24.1477 7.74718 24.2605 7.56471 24.3338 7.33677L22.4297 6.72471C22.445 6.67725 22.4602 6.66894 22.4137 6.73403C22.3616 6.8072 22.2835 6.90345 22.1378 7.08152L23.6857 8.348ZM22.1037 6.39872C22.2664 6.56141 22.3537 6.64942 22.4129 6.71702C22.4656 6.77718 22.4496 6.77042 22.4297 6.72471L24.2634 5.92623C24.1678 5.70671 24.0374 5.53637 23.9178 5.39972C23.8047 5.27053 23.662 5.12851 23.518 4.98451L22.1037 6.39872ZM24.3338 7.33677C24.4826 6.87368 24.4576 6.37221 24.2634 5.92623L22.4297 6.72471L24.3338 7.33677ZM24.0293 9.17748C23.6042 9.13496 23.3441 9.10822 23.1595 9.07506C22.9653 9.04019 23.0017 9.02023 23.0844 9.08298L21.8755 10.6763C22.1827 10.9094 22.5356 10.995 22.806 11.0436C23.0859 11.0938 23.4386 11.1284 23.8303 11.1676L24.0293 9.17748ZM22.1378 7.08152C21.8885 7.38623 21.6636 7.66 21.5012 7.89349C21.3443 8.11901 21.1553 8.42907 21.1029 8.81112L23.0844 9.08298C23.0703 9.18584 23.0304 9.19744 23.1431 9.03547C23.2502 8.88146 23.4152 8.67869 23.6857 8.348L22.1378 7.08152ZM23.0844 9.08298L21.1029 8.81112C21.0047 9.52674 21.3001 10.2397 21.8755 10.6763L23.0844 9.08298ZM26.2891 11.6745C26.2891 11.4708 26.2896 11.2694 26.2782 11.0981C26.2661 10.9169 26.2379 10.7042 26.1503 10.4814L24.2891 11.2134C24.2708 11.167 24.2773 11.151 24.2826 11.2308C24.2886 11.3204 24.2891 11.4444 24.2891 11.6745H26.2891ZM23.8303 11.1676C24.0593 11.1904 24.1825 11.2033 24.2712 11.2181C24.35 11.2314 24.3334 11.2362 24.2891 11.2134L25.2027 9.43429C24.9897 9.32491 24.7808 9.27566 24.6017 9.24565C24.4324 9.21727 24.232 9.19774 24.0293 9.17748L23.8303 11.1676ZM26.1503 10.4814C25.9722 10.0287 25.6354 9.65648 25.2027 9.43429L24.2891 11.2134L26.1503 10.4814ZM24.0294 15.4329C24.232 15.4126 24.4324 15.3931 24.6017 15.3647C24.7808 15.3347 24.9895 15.2855 25.2025 15.1762L24.2891 13.397C24.3334 13.3742 24.35 13.379 24.2712 13.3922C24.1826 13.4071 24.0593 13.4199 23.8304 13.4428L24.0294 15.4329ZM24.2891 12.936C24.2891 13.1661 24.2886 13.29 24.2826 13.3796C24.2773 13.4594 24.2708 13.4433 24.2891 13.397L26.1504 14.1288C26.2379 13.906 26.2662 13.6934 26.2782 13.5122C26.2896 13.341 26.2891 13.1396 26.2891 12.936H24.2891ZM25.2025 15.1762C25.6353 14.954 25.9723 14.5816 26.1504 14.1288L24.2891 13.397L25.2025 15.1762ZM23.6859 16.2621C23.4154 15.9315 23.2505 15.7288 23.1434 15.5749C23.0308 15.413 23.0706 15.4246 23.0847 15.5274L21.1034 15.7996C21.1558 16.1815 21.3447 16.4915 21.5015 16.7169C21.6639 16.9503 21.8887 17.224 22.138 17.5286L23.6859 16.2621ZM23.8304 13.4428C23.4388 13.482 23.0862 13.5165 22.8064 13.5668C22.5361 13.6153 22.1834 13.7009 21.8762 13.9338L23.0847 15.5274C23.002 15.5901 22.9657 15.5701 23.1598 15.5353C23.3444 15.5021 23.6044 15.4754 24.0294 15.4329L23.8304 13.4428ZM23.0847 15.5274L21.8762 13.9338C21.3004 14.3705 21.005 15.0837 21.1034 15.7996L23.0847 15.5274ZM23.5181 19.6253C23.6621 19.4814 23.8048 19.3394 23.9178 19.2103C24.0374 19.0737 24.1678 18.9034 24.2634 18.684L22.4298 17.8852C22.4497 17.8395 22.4656 17.8328 22.413 17.8929C22.3538 17.9605 22.2665 18.0485 22.1039 18.2111L23.5181 19.6253ZM22.138 17.5286C22.2836 17.7066 22.3617 17.8028 22.4138 17.8759C22.4602 17.941 22.445 17.9327 22.4298 17.8852L24.3337 17.2729C24.2605 17.0451 24.1477 16.8627 24.0423 16.7148C23.9426 16.5751 23.8148 16.4196 23.6859 16.2621L22.138 17.5286ZM24.2634 18.684C24.4577 18.2378 24.4827 17.7362 24.3337 17.2729L22.4298 17.8852L24.2634 18.684ZM19.2625 20.6852C19.4201 20.8142 19.5756 20.9421 19.7154 21.0417C19.8633 21.1472 20.0458 21.26 20.2737 21.3333L20.8858 19.4292C20.9333 19.4445 20.9416 19.4596 20.8765 19.4132C20.8033 19.3611 20.7071 19.283 20.529 19.1373L19.2625 20.6852ZM21.2118 19.1032C21.0491 19.2659 20.9611 19.3532 20.8935 19.4124C20.8333 19.465 20.8401 19.4491 20.8858 19.4292L21.6843 21.2629C21.9038 21.1673 22.0741 21.0369 22.2108 20.9173C22.34 20.8042 22.482 20.6615 22.626 20.5175L21.2118 19.1032ZM20.2737 21.3333C20.7368 21.4821 21.2383 21.4571 21.6843 21.2629L20.8858 19.4292L20.2737 21.3333ZM18.433 21.029C18.4756 20.6038 18.5023 20.3437 18.5355 20.159C18.5703 19.9648 18.5903 20.0012 18.5275 20.0839L16.9342 18.875C16.7011 19.1823 16.6155 19.5352 16.5669 19.8055C16.5167 20.0855 16.4821 20.4382 16.443 20.83L18.433 21.029ZM20.529 19.1373C20.2243 18.888 19.9505 18.6631 19.717 18.5007C19.4915 18.3438 19.1815 18.1549 18.7994 18.1024L18.5275 20.0839C18.4247 20.0698 18.4131 20.0299 18.5751 20.1426C18.7291 20.2497 18.9318 20.4147 19.2625 20.6852L20.529 19.1373ZM18.5275 20.0839L18.7994 18.1024C18.0838 18.0042 17.3708 18.2996 16.9342 18.875L18.5275 20.0839ZM15.9359 23.289C16.1396 23.289 16.341 23.2895 16.5124 23.2781C16.6937 23.266 16.9064 23.2378 17.1293 23.1501L16.3971 21.289C16.4435 21.2707 16.4595 21.2772 16.3797 21.2825C16.29 21.2884 16.1661 21.289 15.9359 21.289V23.289ZM16.443 20.83C16.4201 21.059 16.4072 21.1824 16.3923 21.271C16.3791 21.3499 16.3743 21.3333 16.3971 21.289L18.1761 22.2027C18.2855 21.9897 18.3348 21.7808 18.3648 21.6016C18.3932 21.4322 18.4128 21.2317 18.433 21.029L16.443 20.83ZM17.1293 23.1501C17.5818 22.9721 17.9539 22.6353 18.1761 22.2027L16.3971 21.289L17.1293 23.1501ZM12.1776 21.0292C12.1978 21.2319 12.2174 21.4323 12.2458 21.6016C12.2758 21.7807 12.325 21.9896 12.4344 22.2026L14.2135 21.289C14.2363 21.3333 14.2315 21.3499 14.2182 21.2711C14.2034 21.1824 14.1906 21.0592 14.1677 20.8302L12.1776 21.0292ZM14.6746 21.289C14.4445 21.289 14.3205 21.2884 14.2309 21.2825C14.1511 21.2772 14.1671 21.2707 14.2135 21.289L13.4815 23.1502C13.7043 23.2378 13.917 23.266 14.0982 23.2781C14.2695 23.2895 14.4709 23.289 14.6746 23.289V21.289ZM12.4344 22.2026C12.6566 22.6352 13.0288 22.9721 13.4815 23.1502L14.2135 21.289L12.4344 22.2026ZM11.3481 20.6856C11.6788 20.4151 11.8816 20.2501 12.0356 20.143C12.1976 20.0303 12.1859 20.0702 12.0831 20.0843L11.8113 18.1028C11.4292 18.1552 11.1191 18.3442 10.8936 18.5011C10.6601 18.6635 10.3863 18.8884 10.0816 19.1377L11.3481 20.6856ZM14.1677 20.8302C14.1285 20.4385 14.094 20.0858 14.0437 19.8059C13.9951 19.5355 13.9095 19.1826 13.6764 18.8754L12.0831 20.0843C12.0203 20.0016 12.0403 19.9652 12.0752 20.1594C12.1083 20.344 12.1351 20.6041 12.1776 21.0292L14.1677 20.8302ZM12.0831 20.0843L13.6764 18.8754C13.2398 18.3 12.5269 18.0046 11.8113 18.1028L12.0831 20.0843ZM7.98455 20.5179C8.12856 20.6619 8.27059 20.8046 8.39979 20.9177C8.53644 21.0374 8.70679 21.1678 8.92632 21.2634L9.72477 19.4297C9.77048 19.4496 9.77724 19.4655 9.71709 19.4128C9.64947 19.3537 9.56147 19.2664 9.39877 19.1037L7.98455 20.5179ZM10.0816 19.1377C9.90352 19.2834 9.80726 19.3615 9.7341 19.4137C9.669 19.4601 9.67731 19.4449 9.72477 19.4297L10.3368 21.3337C10.5648 21.2605 10.7472 21.1476 10.8951 21.0422C11.0349 20.9425 11.1905 20.8146 11.3481 20.6856L10.0816 19.1377ZM8.92632 21.2634C9.37228 21.4576 9.87373 21.4826 10.3368 21.3337L9.72477 19.4297L8.92632 21.2634ZM6.92481 16.2624C6.79585 16.42 6.66794 16.5755 6.56827 16.7153C6.46284 16.8632 6.35001 17.0457 6.27673 17.2736L8.18078 17.8857C8.16553 17.9331 8.15036 17.9415 8.19677 17.8764C8.24894 17.8032 8.32703 17.7069 8.47273 17.5289L6.92481 16.2624ZM8.50678 18.2117C8.34408 18.049 8.2568 17.961 8.19762 17.8934C8.14497 17.8332 8.16088 17.84 8.18078 17.8857L6.34708 18.6842C6.44267 18.9037 6.57311 19.074 6.69272 19.2107C6.80581 19.3399 6.94856 19.4819 7.09256 19.6259L8.50678 18.2117ZM6.27673 17.2736C6.12788 17.7367 6.15289 18.2382 6.34708 18.6842L8.18078 17.8857L6.27673 17.2736ZM6.58125 15.4329C7.00639 15.4754 7.26642 15.5022 7.45106 15.5353C7.64525 15.5702 7.60888 15.5901 7.52617 15.5274L8.73501 13.9341C8.42779 13.701 8.07495 13.6154 7.80456 13.5668C7.52464 13.5165 7.172 13.482 6.78026 13.4428L6.58125 15.4329ZM8.47273 17.5289C8.72204 17.2242 8.94698 16.9504 9.10937 16.7169C9.26623 16.4914 9.45518 16.1813 9.5076 15.7993L7.52617 15.5274C7.54028 15.4245 7.58012 15.4129 7.46746 15.5749C7.36034 15.7289 7.19538 15.9317 6.92481 16.2624L8.47273 17.5289ZM7.52617 15.5274L9.5076 15.7993C9.6058 15.0836 9.31047 14.3707 8.73501 13.9341L7.52617 15.5274ZM4.32153 12.9359C4.32153 13.1396 4.32102 13.3409 4.33241 13.5123C4.34445 13.6935 4.37267 13.9061 4.4603 14.129L6.32153 13.397C6.33978 13.4433 6.33331 13.4594 6.328 13.3796C6.32205 13.29 6.32153 13.166 6.32153 12.9359H4.32153ZM6.78026 13.4428C6.55132 13.4199 6.42805 13.4071 6.33943 13.3922C6.26059 13.379 6.27719 13.3742 6.32153 13.397L5.40797 15.1761C5.62096 15.2855 5.82977 15.3347 6.00888 15.3647C6.17821 15.3931 6.37862 15.4126 6.58125 15.4329L6.78026 13.4428ZM4.4603 14.129C4.63834 14.5816 4.97525 14.9539 5.40797 15.1761L6.32153 13.397L4.4603 14.129ZM6.58137 9.17747C6.37868 9.19774 6.17822 9.21727 6.00885 9.24565C5.82969 9.27568 5.62083 9.32494 5.40779 9.43436L6.32153 11.2134C6.27718 11.2362 6.26057 11.2314 6.33944 11.2181C6.42807 11.2033 6.55138 11.1904 6.78038 11.1675L6.58137 9.17747ZM6.32153 11.6746C6.32153 11.4444 6.32205 11.3204 6.32801 11.2308C6.33331 11.151 6.33979 11.167 6.32153 11.2134L4.46038 10.4812C4.3727 10.7041 4.34446 10.9168 4.33241 11.0981C4.32102 11.2695 4.32153 11.4709 4.32153 11.6746H6.32153ZM5.40779 9.43436C4.97521 9.65654 4.63841 10.0287 4.46038 10.4812L6.32153 11.2134L5.40779 9.43436ZM6.92499 8.34771C7.19564 8.67851 7.36066 8.88135 7.46781 9.03542C7.5805 9.19745 7.54065 9.18584 7.52655 9.08295L9.50802 8.81136C9.45564 8.42919 9.26663 8.11905 9.10974 7.89346C8.9473 7.65991 8.72229 7.38604 8.4729 7.08124L6.92499 8.34771ZM6.78038 11.1675C7.17223 11.1284 7.52497 11.0938 7.80496 11.0435C8.07542 10.995 8.42835 10.9093 8.73562 10.6761L7.52655 9.08295C7.60926 9.02017 7.64565 9.04014 7.45142 9.07503C7.26672 9.1082 7.00663 9.13494 6.58137 9.17747L6.78038 11.1675ZM7.52655 9.08295L8.73562 10.6761C9.31085 10.2396 9.60608 9.5268 9.50802 8.81136L7.52655 9.08295ZM7.09273 4.98393C6.94867 5.12799 6.80587 5.27006 6.69275 5.39931C6.57309 5.53601 6.44261 5.70643 6.34702 5.92605L8.18083 6.72426C8.16093 6.76998 8.145 6.77675 8.19767 6.71657C8.25688 6.64894 8.34419 6.5609 8.50694 6.39814L7.09273 4.98393ZM8.4729 7.08124C8.32714 6.90308 8.24901 6.80679 8.19683 6.73359C8.1504 6.66846 8.16557 6.67677 8.18083 6.72426L6.27669 7.33604C6.34996 7.56409 6.46284 7.74664 6.5683 7.89458C6.66801 8.03444 6.79597 8.19003 6.92499 8.34771L8.4729 7.08124ZM6.34702 5.92605C6.15296 6.37187 6.12796 6.87312 6.27669 7.33604L8.18083 6.72426L6.34702 5.92605ZM11.3482 3.92437C11.1905 3.79538 11.035 3.66746 10.8952 3.56777C10.7473 3.46234 10.5648 3.34949 10.3368 3.27621L9.72482 5.18027C9.67734 5.16501 9.66903 5.14984 9.73415 5.19627C9.80734 5.24845 9.90361 5.32656 10.0817 5.47228L11.3482 3.92437ZM9.39881 5.50627C9.56151 5.34357 9.64952 5.25629 9.71713 5.19711C9.77729 5.14445 9.77053 5.16037 9.72482 5.18027L8.92637 3.34656C8.70684 3.44215 8.53649 3.57259 8.39983 3.69221C8.27063 3.8053 8.12861 3.94805 7.9846 4.09206L9.39881 5.50627ZM10.3368 3.27621C9.87377 3.12737 9.37233 3.15238 8.92637 3.34656L9.72482 5.18027L10.3368 3.27621ZM12.1776 3.58102C12.1351 4.00604 12.1084 4.26599 12.0752 4.45059C12.0404 4.64472 12.0204 4.60837 12.0831 4.52568L13.6766 5.73427C13.9096 5.42711 13.9952 5.07436 14.0437 4.80405C14.094 4.5242 14.1285 4.17166 14.1677 3.78003L12.1776 3.58102ZM10.0817 5.47228C10.3864 5.72156 10.6601 5.94647 10.8936 6.10884C11.119 6.26566 11.429 6.4546 11.811 6.50707L12.0831 4.52568C12.186 4.5398 12.1976 4.57963 12.0356 4.46696C11.8816 4.35984 11.6788 4.19489 11.3482 3.92437L10.0817 5.47228ZM12.0831 4.52568L11.811 6.50707C12.5268 6.6054 13.24 6.30998 13.6766 5.73427L12.0831 4.52568ZM15.936 3.32143C16.1661 3.32143 16.2901 3.32194 16.3797 3.3279C16.4595 3.3332 16.4435 3.33967 16.3971 3.32143L17.1291 1.4602C16.9063 1.37257 16.6936 1.34435 16.5124 1.3323C16.3411 1.32091 16.1397 1.32143 15.936 1.32143V3.32143ZM18.433 3.58115C18.4127 3.37851 18.3932 3.1781 18.3648 3.00877C18.3348 2.82966 18.2856 2.62085 18.1762 2.40786L16.3971 3.32143C16.3743 3.27708 16.3791 3.26048 16.3924 3.33933C16.4072 3.42794 16.42 3.55122 16.4429 3.78016L18.433 3.58115ZM16.3971 3.32143L18.1762 2.40786C17.954 1.97514 17.5817 1.63823 17.1291 1.4602L16.3971 3.32143ZM14.6744 1.32143C14.4708 1.32143 14.2695 1.32091 14.0983 1.3323C13.9171 1.34433 13.7045 1.37254 13.4817 1.46012L14.2135 3.32143C14.1672 3.33966 14.1511 3.33319 14.2309 3.32789C14.3205 3.32194 14.4444 3.32143 14.6744 3.32143V1.32143ZM14.1677 3.78003C14.1906 3.55115 14.2034 3.42791 14.2182 3.33932C14.2315 3.2605 14.2363 3.27709 14.2135 3.32143L12.4343 2.40804C12.325 2.62098 12.2757 2.82974 12.2457 3.0088C12.2174 3.17809 12.1979 3.37844 12.1776 3.58102L14.1677 3.78003ZM13.4817 1.46012C13.0289 1.63816 12.6565 1.97517 12.4343 2.40804L14.2135 3.32143L13.4817 1.46012Z" fill="white"/>
</g>
<circle cx="15.3053" cy="12.3052" r="3.24351" stroke="#E58A08" stroke-width="1.5"/>
<defs>
<filter id="filter0_d_188_876" x="0.321533" y="1.32143" width="29.9675" height="29.9675" filterUnits="userSpaceOnUse" color-interpolation-filters="sRGB">
<feFlood flood-opacity="0" result="BackgroundImageFix"/>
<feColorMatrix in="SourceAlpha" type="matrix" values="0 0 0 0 0 0 0 0 0 0 0 0 0 0 0 0 0 0 127 0" result="hardAlpha"/>
<feOffset dy="4"/>
<feGaussianBlur stdDeviation="2"/>
<feComposite in2="hardAlpha" operator="out"/>
<feColorMatrix type="matrix" values="0 0 0 0 0 0 0 0 0 0 0 0 0 0 0 0 0 0 0.25 0"/>
<feBlend mode="normal" in2="BackgroundImageFix" result="effect1_dropShadow_188_876"/>
<feBlend mode="normal" in="SourceGraphic" in2="effect1_dropShadow_188_876" result="shape"/>
</filter>
</defs>
</svg>
