<svg width="25" height="25" viewBox="0 0 25 25" fill="none" xmlns="http://www.w3.org/2000/svg">
<path d="M8.70161 19.2221C9.91579 19.9232 11.2931 20.2922 12.6951 20.2922C14.0971 20.2922 15.4744 19.9232 16.6886 19.2221C17.9028 18.5211 18.9111 17.5129 19.6121 16.2987C20.3131 15.0845 20.6821 13.7072 20.6821 12.3052C20.6821 10.9032 20.3131 9.52586 19.6121 8.31168C18.9111 7.0975 17.9028 6.08924 16.6886 5.38823C15.4744 4.68723 14.0971 4.31818 12.6951 4.31818C11.2931 4.31818 9.91579 4.68723 8.70161 5.38823" stroke="white" stroke-width="2"/>
<path d="M2.71094 12.3052L1.93007 11.6805L1.43031 12.3052L1.93007 12.9299L2.71094 12.3052ZM11.6963 13.3052C12.2486 13.3052 12.6963 12.8575 12.6963 12.3052C12.6963 11.7529 12.2486 11.3052 11.6963 11.3052V13.3052ZM5.92358 6.68861L1.93007 11.6805L3.49181 12.9299L7.48531 7.938L5.92358 6.68861ZM1.93007 12.9299L5.92358 17.9218L7.48531 16.6724L3.49181 11.6805L1.93007 12.9299ZM2.71094 13.3052H11.6963V11.3052H2.71094V13.3052Z" fill="#E58A08"/>
</svg>
